# xmcd
#
# Track frame offsets:
#	150
#	15796
#	30120
#	45682
#	63225
#	77822
#	92146
#	105930
#	118897
#	135037
#	149234
#	163288
#	175524
#
# Disc length: 2570 seconds
#
# Revision: 1
# Processed by: cddbd v1.5.1PL0 Copyright (c) Steve Scherf et al.
# Submitted via: audiograbber 1.82.01
#
DISCID=990a080d
DTITLE=Meio Kilo - Mateando Saudade
DYEAR=2002
DGENRE=Gaúchos
TTITLE0=De Causos e Gauchadas
TTITLE1=Mateando Saudade
TTITLE2=Coisa Feita
TTITLE3=Perda do Cavalo
TTITLE4=Espinho de Cobra
TTITLE5=Carreteiro Solitário
TTITLE6=Me Deu Saudade
TTITLE7=De Bagé a Vacaria
TTITLE8=Na Janela do Rancho
TTITLE9=Hienas do Sul
TTITLE10=Meu Verso
TTITLE11=Contramão
TTITLE12=Eremita
EXTD=
EXTT0=
EXTT1=
EXTT2=
EXTT3=
EXTT4=
EXTT5=
EXTT6=
EXTT7=
EXTT8=
EXTT9=
EXTT10=
EXTT11=
EXTT12=
PLAYORDER=
